<?xml version="1.0" standalone="no"?>
<!DOCTYPE svg PUBLIC "-//W3C//DTD SVG 20010904//EN"
 "http://www.w3.org/TR/2001/REC-SVG-20010904/DTD/svg10.dtd">
<svg version="1.0" xmlns="http://www.w3.org/2000/svg"
 width="512.000000pt" height="512.000000pt" viewBox="0 0 512.000000 512.000000"
 preserveAspectRatio="xMidYMid meet">
<metadata>
Created by potrace 1.14, written by Peter Selinger 2001-2017
</metadata>
<g transform="translate(0.000000,512.000000) scale(0.100000,-0.100000)"
fill="#000000" stroke="none">
<path d="M2360 4879 c-124 -11 -321 -53 -441 -94 -134 -46 -340 -147 -454
-222 -195 -129 -392 -334 -552 -573 -121 -181 -211 -420 -252 -671 -25 -153
-38 -379 -23 -379 6 0 9 -6 6 -14 -13 -33 57 -396 76 -396 4 0 8 -6 7 -13 -1
-34 4 -58 11 -53 5 3 9 -7 9 -22 0 -15 15 -62 33 -105 30 -72 34 -77 49 -63
10 9 27 16 39 16 11 0 23 4 26 9 3 5 18 11 33 14 16 3 37 8 48 11 11 3 52 13
90 21 39 8 82 20 96 26 14 5 68 16 120 24 52 8 105 17 119 20 14 4 39 9 55 12
17 2 54 14 82 26 73 31 82 53 82 203 -1 138 12 221 48 319 121 327 357 560
658 649 l80 23 6 39 c7 54 27 81 77 105 l42 21 0 103 c0 121 4 135 36 135 l24
0 0 -124 0 -124 30 -12 c39 -16 64 -63 57 -105 l-5 -31 71 -18 c93 -23 241
-93 324 -152 188 -134 335 -346 406 -584 25 -84 33 -299 15 -385 l-13 -60 135
-27 c74 -15 145 -27 158 -28 12 0 30 -4 40 -9 9 -5 40 -14 67 -19 28 -6 118
-27 200 -47 194 -46 185 -45 185 -34 0 5 8 9 18 9 14 0 15 2 2 10 -12 8 -12
10 5 10 27 1 51 20 60 50 7 23 8 24 15 5 6 -15 17 10 43 95 40 127 60 235 78
415 32 337 -61 747 -237 1044 -142 238 -372 489 -569 620 -131 87 -330 186
-474 236 -248 85 -558 120 -841 94z m220 -319 c0 -243 -1 -250 -20 -250 -19 0
-20 7 -20 250 0 243 1 250 20 250 19 0 20 -7 20 -250z m0 -359 c0 -50 5 -93
10 -96 26 -16 -3 -38 -39 -28 -19 5 -21 11 -17 52 2 25 5 72 5 104 1 50 3 57
21 57 19 0 20 -7 20 -89z m1823 -1706 c-3 -9 -8 -14 -10 -11 -3 3 -2 9 2 15 9
16 15 13 8 -4z m-13 -49 c0 -3 -4 -8 -10 -11 -5 -3 -10 -1 -10 4 0 6 5 11 10
11 6 0 10 -2 10 -4z"/>
<path d="M2466 3739 c-34 -27 -33 -59 4 -94 l30 -29 0 -144 c0 -127 2 -143 16
-138 9 3 18 6 20 6 2 0 4 72 4 161 0 124 3 160 13 157 9 -4 13 -47 15 -161 3
-205 22 -211 22 -8 l0 149 26 20 c22 15 26 24 20 45 -13 54 -119 77 -170 36z"/>
<path d="M2497 3320 c-27 -5 -57 -16 -68 -26 -21 -19 -25 -54 -9 -70 6 -6 12
-31 13 -55 2 -38 -1 -44 -20 -47 -12 -2 -24 -10 -27 -18 -4 -11 -1 -14 12 -10
9 2 43 7 75 11 31 3 57 11 57 16 0 5 16 7 36 4 29 -3 35 -2 30 11 -3 9 -6 20
-6 26 0 6 -11 8 -25 5 -16 -3 -24 0 -22 7 2 6 11 10 20 10 10 -1 27 -2 38 -3
18 -1 21 -5 16 -31 -5 -25 -3 -30 12 -30 10 0 38 -7 61 -15 59 -21 62 -11 6
14 -52 23 -57 38 -25 90 11 18 19 43 17 54 -6 45 -101 72 -191 57z"/>
<path d="M2570 3082 c0 -20 4 -31 10 -27 6 3 10 2 10 -2 0 -5 34 -14 75 -20
41 -7 88 -19 105 -28 16 -8 30 -12 30 -8 -1 19 -85 65 -147 80 -37 9 -71 21
-75 27 -4 6 -8 -4 -8 -22z"/>
<path d="M2424 3066 c-78 -31 -164 -87 -164 -107 0 -12 -3 -13 62 20 50 26 89
37 194 57 17 3 20 9 16 34 -2 16 -9 30 -16 30 -6 -1 -48 -16 -92 -34z"/>
<path d="M2474 3010 c-118 -18 -216 -69 -258 -133 -38 -59 -33 -75 12 -39 181
143 480 150 660 15 38 -28 40 -22 9 32 -41 72 -146 117 -298 128 -41 3 -97 2
-125 -3z"/>
<path d="M2810 2991 c0 -5 7 -12 16 -15 14 -5 15 -4 4 9 -14 17 -20 19 -20 6z"/>
<path d="M2395 2901 c-68 -19 -146 -59 -189 -98 -27 -23 -30 -33 -36 -105 -3
-50 -1 -93 6 -114 6 -18 14 -48 18 -66 8 -41 68 -132 101 -154 14 -9 25 -20
25 -24 0 -4 -55 -11 -122 -14 -525 -30 -1137 -172 -1633 -378 -66 -27 -124
-53 -128 -57 -4 -4 21 -30 55 -56 35 -27 96 -77 136 -112 40 -35 81 -63 92
-63 10 0 22 -5 26 -12 5 -7 3 -8 -7 -3 -22 13 23 -35 52 -56 l27 -19 191 70
c105 38 228 81 273 94 113 32 412 100 583 131 98 17 121 24 78 21 -35 -2 -61
-1 -59 3 3 4 -4 12 -14 19 -12 7 -21 8 -25 2 -3 -6 2 -10 12 -11 26 -2 -44
-17 -103 -23 -28 -3 -58 -8 -67 -12 -13 -5 -16 -2 -11 9 3 9 11 14 18 11 8 -3
31 4 52 15 22 11 56 22 77 24 21 3 41 8 44 11 9 9 -2 8 -113 -9 -54 -8 -105
-15 -113 -15 -11 0 -11 -3 -1 -15 8 -9 8 -15 2 -15 -6 0 -12 5 -14 11 -5 14
-78 3 -78 -12 0 -5 -11 -7 -25 -3 -16 4 -25 2 -25 -6 0 -7 -8 -9 -22 -5 -18 5
-20 4 -8 -4 8 -6 11 -11 5 -11 -5 0 1 -7 15 -15 l25 -15 -29 5 c-16 2 -33 10
-38 17 -4 7 -8 10 -9 6 -5 -25 -4 -34 6 -40 5 -4 1 -7 -10 -7 -27 1 -83 -9
-95 -16 -5 -3 -21 -3 -35 1 -24 6 -25 7 -8 21 16 13 16 13 -5 3 -12 -6 -20
-15 -17 -19 2 -5 -2 -14 -11 -21 -10 -9 -12 -15 -4 -20 7 -5 4 -9 -9 -13 -12
-3 -18 -1 -15 4 3 5 -1 12 -10 15 -8 3 -13 11 -10 18 3 7 -2 13 -10 13 -8 0
-13 -4 -10 -9 3 -4 -2 -8 -10 -8 -8 0 -18 5 -21 10 -3 6 -14 10 -23 10 -13 0
-13 -2 4 -15 10 -8 29 -15 42 -15 12 0 25 -7 29 -15 8 -24 -4 -30 -22 -11 -9
9 -23 16 -31 16 -9 0 -22 7 -30 15 -9 8 -20 15 -27 15 -6 0 -3 -6 8 -13 11 -9
15 -19 10 -27 -6 -9 0 -10 24 -5 24 5 31 3 31 -9 0 -12 -8 -15 -32 -14 -18 2
-32 -2 -31 -7 1 -6 -13 -10 -30 -10 -21 0 -31 -4 -29 -13 2 -10 -4 -12 -20 -7
-16 4 -19 3 -10 -3 11 -7 7 -11 -13 -16 -28 -7 -59 9 -49 25 3 5 0 9 -6 9 -6
0 -8 5 -5 11 4 6 13 8 20 5 8 -3 28 2 45 11 17 8 34 12 37 9 3 -3 -2 -8 -11
-12 -9 -3 -16 -11 -16 -17 0 -5 9 -2 20 8 21 19 17 40 -6 31 -8 -3 -14 -1 -14
5 0 6 -13 8 -32 5 -53 -9 167 63 288 94 246 64 765 152 807 137 7 -2 -16 -7
-50 -12 -35 -4 -63 -11 -63 -15 0 -4 10 -6 22 -2 16 4 19 2 13 -9 -7 -12 -6
-12 7 -1 9 7 29 12 45 10 26 -3 27 -4 8 -14 -30 -17 -98 -28 -90 -15 3 6 1 11
-4 11 -6 0 -11 -4 -11 -9 0 -5 -8 -11 -17 -13 -48 -10 115 -17 202 -8 152 15
265 13 265 -4 0 -18 -31 -26 -101 -26 -154 0 -469 -43 -709 -96 -249 -55 -633
-173 -735 -227 l-27 -14 113 -101 c63 -56 118 -102 124 -102 5 0 39 14 75 31
219 105 586 189 1012 234 81 8 164 15 184 15 l37 0 -7 -217 c-5 -132 -12 -228
-19 -243 -10 -21 -19 -25 -54 -25 -22 0 -39 -3 -37 -7 3 -4 -10 -9 -28 -11
-18 -2 2 -2 45 0 42 2 77 1 77 -4 0 -4 -7 -143 -15 -308 -8 -165 -15 -339 -15
-387 0 -101 -12 -92 154 -104 l98 -7 -7 794 c-4 437 -11 902 -14 1034 l-6 240
-72 -1 c-63 -2 -73 1 -78 17 -9 28 1 37 62 55 70 20 157 14 215 -15 50 -25 59
-21 26 12 -37 37 -125 53 -208 38 -36 -7 -73 -14 -82 -15 -29 -4 -33 -14 -30
-87 2 -38 -1 -69 -5 -69 -15 0 -73 65 -73 81 0 8 13 36 29 62 41 64 93 89 198
95 148 8 244 -33 265 -113 12 -43 13 -44 31 -27 28 25 65 92 72 133 6 32 3 38
-36 73 -78 71 -186 106 -329 106 -140 0 -272 -42 -336 -105 -18 -18 -24 -20
-24 -9 0 22 55 71 110 99 110 56 298 73 424 40 83 -22 175 -73 197 -110 l19
-30 0 37 c0 127 -288 223 -521 174 -71 -15 -178 -64 -219 -100 l-24 -21 15 25
c22 35 111 87 194 113 55 17 93 22 180 22 157 -1 269 -37 348 -113 l37 -36 0
32 c0 68 -105 144 -242 177 -85 20 -237 18 -313 -4z m13 -938 c-1 -37 -1 -37
-5 -6 l-4 32 -72 4 -72 3 78 2 77 2 -2 -37z m-200 20 c-10 -2 -28 -2 -40 0
-13 2 -5 4 17 4 22 1 32 -1 23 -4z m-165 -80 c-7 -2 -19 -2 -25 0 -7 3 -2 5
12 5 14 0 19 -2 13 -5z m-446 -46 c0 -7 -8 -14 -18 -14 -15 -1 -16 1 -6 12 15
18 24 19 24 2z m-64 -22 c-3 -9 -8 -14 -10 -11 -3 3 -2 9 2 15 9 16 15 13 8
-4z m-10 -32 c-7 -2 -21 -2 -30 0 -10 3 -4 5 12 5 17 0 24 -2 18 -5z m-226
-30 c-9 -2 -14 -9 -11 -15 4 -7 2 -8 -5 -4 -15 10 -4 26 17 25 15 -1 15 -2 -1
-6z m-347 -43 c-8 -5 -22 -9 -30 -9 -10 0 -8 3 5 9 27 12 43 12 25 0z"/>
<path d="M2701 2362 c-15 -11 -21 -25 -18 -37 4 -18 5 -18 12 3 5 15 10 19 15
12 5 -8 10 -7 18 2 6 8 7 19 3 26 -6 10 -13 9 -30 -6z"/>
<path d="M2632 2183 c3 -98 13 -536 22 -973 9 -437 19 -819 22 -847 4 -36 10
-53 19 -53 8 0 16 3 18 7 3 5 1 116 -4 248 -4 132 -13 386 -18 565 -6 179 -15
429 -21 555 -5 127 -11 329 -13 450 -3 180 -6 221 -18 223 -12 2 -13 -25 -7
-175z"/>
<path d="M2784 2329 c-2 -5 -27 -22 -54 -40 l-50 -32 0 -101 c0 -56 3 -131 6
-168 l7 -67 61 -5 c33 -3 122 -10 196 -16 418 -36 950 -167 1273 -314 46 -21
84 -33 91 -29 33 20 144 119 142 127 -6 24 -313 136 -559 206 -271 76 -629
139 -962 169 -67 6 -77 9 -39 10 88 2 428 -37 639 -74 300 -52 722 -181 865
-263 71 -40 72 -40 183 48 56 46 106 86 111 91 18 17 -281 140 -521 215 -372
115 -741 188 -1158 229 -230 22 -226 22 -231 14z m24 -256 c-21 -2 -57 -2 -80
0 -24 2 -7 4 37 4 44 0 63 -2 43 -4z"/>
<path d="M1926 1941 c-4 -5 3 -7 14 -4 23 6 26 13 6 13 -8 0 -17 -4 -20 -9z"/>
<path d="M1892 1931 c-6 -4 -1 -11 14 -18 27 -12 31 -8 11 12 -8 7 -19 10 -25
6z"/>
<path d="M2695 1828 c3 -29 10 -125 15 -213 5 -88 16 -252 24 -365 9 -113 23
-299 31 -415 27 -370 37 -500 41 -504 3 -3 10 1 16 7 9 9 9 46 0 160 -21 244
-40 501 -47 607 -3 55 -11 127 -16 160 -19 117 -28 191 -30 270 l-2 80 39 -3
c496 -35 949 -133 1204 -262 59 -30 62 -30 83 -13 46 36 217 185 217 188 0 20
-368 152 -582 209 -294 77 -737 145 -951 146 l-47 0 5 -52z"/>
<path d="M1320 1808 c0 -14 15 -14 50 -2 l35 12 -42 -1 c-24 -1 -43 -5 -43 -9z"/>
<path d="M1230 1790 c0 -5 7 -7 15 -4 8 4 15 8 15 10 0 2 -7 4 -15 4 -8 0 -15
-4 -15 -10z"/>
<path d="M1050 1760 c-22 -7 -23 -8 -4 -9 12 -1 28 -9 35 -19 8 -9 13 -15 11
-13 -1 2 5 13 15 23 9 10 11 18 5 18 -6 0 -16 2 -24 4 -7 2 -24 0 -38 -4z"/>
<path d="M987 1683 c-11 -11 -8 -23 6 -23 8 0 14 7 14 15 0 16 -9 19 -20 8z"/>
<path d="M2228 1143 c12 -2 32 -2 45 0 12 2 2 4 -23 4 -25 0 -35 -2 -22 -4z"/>
<path d="M2310 1140 c0 -5 5 -10 10 -10 6 0 10 5 10 10 0 6 -4 10 -10 10 -5 0
-10 -4 -10 -10z"/>
<path d="M3088 1123 c6 -2 18 -2 25 0 6 3 1 5 -13 5 -14 0 -19 -2 -12 -5z"/>
<path d="M3175 1110 c19 -8 73 -14 64 -6 -2 2 -22 6 -44 9 -28 5 -34 4 -20 -3z"/>
<path d="M1636 1091 c-4 -5 3 -7 14 -4 23 6 26 13 6 13 -8 0 -17 -4 -20 -9z"/>
<path d="M3113 1073 c9 -2 23 -2 30 0 6 3 -1 5 -18 5 -16 0 -22 -2 -12 -5z"/>
<path d="M1640 1038 c-33 -9 -34 -11 -15 -24 21 -16 51 -17 80 -3 17 8 16 9
-6 4 -18 -3 -26 0 -26 10 0 10 8 13 26 9 20 -4 23 -3 11 5 -18 13 -24 12 -70
-1z"/>
<path d="M1738 1023 c7 -3 16 -2 19 1 4 3 -2 6 -13 5 -11 0 -14 -3 -6 -6z"/>
</g>
</svg>
